<?xml version="1.0" encoding="UTF-8" standalone="no"?>
<!-- Created with Inkscape (http://www.inkscape.org/) -->

<svg
   width="256"
   height="142"
   viewBox="0 0 67.733332 37.570835"
   version="1.1"
   id="svg5"
   inkscape:version="1.1 (1:1.1+202105261517+ce6663b3b7)"
   sodipodi:docname="rabbit.svg"
   inkscape:export-filename="/home/victor/Projects/board-game/data/img/char/rabbit.png"
   inkscape:export-xdpi="96"
   inkscape:export-ydpi="96"
   xmlns:inkscape="http://www.inkscape.org/namespaces/inkscape"
   xmlns:sodipodi="http://sodipodi.sourceforge.net/DTD/sodipodi-0.dtd"
   xmlns="http://www.w3.org/2000/svg"
   xmlns:svg="http://www.w3.org/2000/svg">
  <sodipodi:namedview
     id="namedview7"
     pagecolor="#ffffff"
     bordercolor="#111111"
     borderopacity="1"
     inkscape:pageshadow="0"
     inkscape:pageopacity="0"
     inkscape:pagecheckerboard="1"
     inkscape:document-units="px"
     showgrid="false"
     units="px"
     width="256px"
     inkscape:snap-global="false"
     inkscape:zoom="1"
     inkscape:cx="197.5"
     inkscape:cy="29.5"
     inkscape:window-width="1920"
     inkscape:window-height="1015"
     inkscape:window-x="0"
     inkscape:window-y="0"
     inkscape:window-maximized="1"
     inkscape:current-layer="layer1"
     height="142px" />
  <defs
     id="defs2" />
  <g
     inkscape:label="Layer 1"
     inkscape:groupmode="layer"
     id="layer1"
     sodipodi:insensitive="true"
     style="display:none">
    <rect
       style="fill:#000000;fill-opacity:0.174793;stroke:none;stroke-width:1.05833;stroke-linecap:round;stroke-linejoin:round;stroke-miterlimit:4;stroke-dasharray:none;stroke-opacity:1"
       id="rect16040"
       width="33.866669"
       height="37.570831"
       x="33.866669"
       y="-1.9826449e-15" />
  </g>
  <g
     inkscape:groupmode="layer"
     id="layer2"
     inkscape:label="Layer 2">
    <g
       id="g12958"
       transform="matrix(0.9954518,0,0,1.001967,-0.56936571,-0.03000886)"
       style="stroke-width:1.0013">
      <path
         style="fill:#ffffff;fill-opacity:1;stroke:#000000;stroke-width:1.05971;stroke-linecap:round;stroke-linejoin:round;stroke-miterlimit:4;stroke-dasharray:none;stroke-opacity:1"
         d="m 13.437447,32.310063 0.05917,3.03703 2.693059,0.296143 0.917232,-2.870918 z"
         id="path12470"
         sodipodi:nodetypes="ccccc" />
      <path
         style="fill:#ffffff;fill-opacity:1;stroke:#000000;stroke-width:1.05971;stroke-linecap:round;stroke-linejoin:round;stroke-miterlimit:4;stroke-dasharray:none;stroke-opacity:1"
         d="m 16.488474,36.797126 c 0,0 -2.844717,0.531196 -4.265265,-0.149905 0,0 -1.220965,-1.75644 0.502159,-2.1424 1.723124,-0.385961 3.552684,0.400096 3.552684,0.400096 0,0 0.841829,0.388598 0.210422,1.892209 z"
         id="path12355" />
      <path
         style="fill:#ffffff;fill-opacity:1;stroke:#000000;stroke-width:0.529853;stroke-linecap:round;stroke-linejoin:round;stroke-miterlimit:4;stroke-dasharray:none;stroke-opacity:1"
         d="m 13.319443,35.563332 c 0,0 -0.153733,0.470678 3.71e-4,1.297802"
         id="path12756" />
      <path
         style="fill:#ffffff;fill-opacity:1;stroke:#000000;stroke-width:0.529853;stroke-linecap:round;stroke-linejoin:round;stroke-miterlimit:4;stroke-dasharray:none;stroke-opacity:1"
         d="m 14.592916,35.576445 c 0,0 -0.153733,0.470678 3.71e-4,1.297802"
         id="path12952" />
    </g>
    <g
       id="g13321"
       transform="matrix(-0.9954518,0,0,1.001967,34.530663,-0.03000886)"
       style="stroke-width:1.0013">
      <path
         style="fill:#ffffff;fill-opacity:1;stroke:#000000;stroke-width:1.05971;stroke-linecap:round;stroke-linejoin:round;stroke-miterlimit:4;stroke-dasharray:none;stroke-opacity:1"
         d="m 13.437447,32.310063 0.05917,3.03703 2.693059,0.296143 0.917232,-2.870918 z"
         id="path13313"
         sodipodi:nodetypes="ccccc" />
      <path
         style="fill:#ffffff;fill-opacity:1;stroke:#000000;stroke-width:1.05971;stroke-linecap:round;stroke-linejoin:round;stroke-miterlimit:4;stroke-dasharray:none;stroke-opacity:1"
         d="m 16.488474,36.797126 c 0,0 -2.844717,0.531196 -4.265265,-0.149905 0,0 -1.220965,-1.75644 0.502159,-2.1424 1.723124,-0.385961 3.552684,0.400096 3.552684,0.400096 0,0 0.841829,0.388598 0.210422,1.892209 z"
         id="path13315" />
      <path
         style="fill:#ffffff;fill-opacity:1;stroke:#000000;stroke-width:0.529853;stroke-linecap:round;stroke-linejoin:round;stroke-miterlimit:4;stroke-dasharray:none;stroke-opacity:1"
         d="m 13.319443,35.563332 c 0,0 -0.153733,0.470678 3.71e-4,1.297802"
         id="path13317" />
      <path
         style="fill:#ffffff;fill-opacity:1;stroke:#000000;stroke-width:0.529853;stroke-linecap:round;stroke-linejoin:round;stroke-miterlimit:4;stroke-dasharray:none;stroke-opacity:1"
         d="m 14.592916,35.576445 c 0,0 -0.153733,0.470678 3.71e-4,1.297802"
         id="path13319" />
    </g>
    <g
       id="g9307"
       transform="matrix(0.9954518,0,0,1.001967,-0.56936571,-0.03000886)"
       style="stroke-width:1.0013">
      <path
         style="fill:#ffffff;fill-opacity:1;stroke:#000000;stroke-width:1.05971;stroke-linecap:round;stroke-linejoin:round;stroke-miterlimit:4;stroke-dasharray:none;stroke-opacity:1"
         d="m 12.243165,21.082466 c 0,0 -1.281106,0.543108 -1.70875,3.121202 -0.427645,2.578093 -1.5077532,3.473284 -1.5077532,3.473284 0,0 -1.0956473,1.716564 0.1612548,2.447258 1.2569024,0.730695 2.9605834,-1.339834 2.9605834,-1.339834 0,0 1.720232,-2.772947 2.063008,-8.09214 -0.656114,0.130077 -1.023497,0.0014 -1.968343,0.39023 z"
         id="path8227"
         sodipodi:nodetypes="cscsccc" />
      <path
         style="fill:#ffffff;fill-opacity:1;stroke:#000000;stroke-width:0.529853;stroke-linecap:round;stroke-linejoin:round;stroke-miterlimit:4;stroke-dasharray:none;stroke-opacity:1"
         d="m 9.9106296,28.217961 c 0,0 -0.5647544,0.533625 -0.7861998,1.682732"
         id="path9220" />
      <path
         style="fill:#ffffff;fill-opacity:1;stroke:#000000;stroke-width:0.529853;stroke-linecap:round;stroke-linejoin:round;stroke-miterlimit:4;stroke-dasharray:none;stroke-opacity:1"
         d="m 10.573073,28.582508 c 0,0 -0.564754,0.533625 -0.7861993,1.682732"
         id="path9302" />
    </g>
    <g
       id="g12320"
       transform="matrix(-0.9954518,0,0,1.001967,34.473393,-0.11274963)"
       style="stroke-width:1.0013">
      <path
         style="fill:#ffffff;fill-opacity:1;stroke:#000000;stroke-width:1.05971;stroke-linecap:round;stroke-linejoin:round;stroke-miterlimit:4;stroke-dasharray:none;stroke-opacity:1"
         d="m 12.243165,21.082466 c 0,0 -1.281106,0.543108 -1.70875,3.121202 -0.427645,2.578093 -1.5077532,3.473284 -1.5077532,3.473284 0,0 -1.0956473,1.716564 0.1612548,2.447258 1.2569024,0.730695 2.9605834,-1.339834 2.9605834,-1.339834 0,0 1.720232,-2.772947 2.063008,-8.09214 -0.656114,0.130077 -1.023497,0.0014 -1.968343,0.39023 z"
         id="path12314"
         sodipodi:nodetypes="cscsccc" />
      <path
         style="fill:#ffffff;fill-opacity:1;stroke:#000000;stroke-width:0.529853;stroke-linecap:round;stroke-linejoin:round;stroke-miterlimit:4;stroke-dasharray:none;stroke-opacity:1"
         d="m 9.9106296,28.217961 c 0,0 -0.5647544,0.533625 -0.7861998,1.682732"
         id="path12316" />
      <path
         style="fill:#ffffff;fill-opacity:1;stroke:#000000;stroke-width:0.529853;stroke-linecap:round;stroke-linejoin:round;stroke-miterlimit:4;stroke-dasharray:none;stroke-opacity:1"
         d="m 10.573073,28.582508 c 0,0 -0.564754,0.533625 -0.7861993,1.682732"
         id="path12318" />
    </g>
    <path
       id="path1086"
       style="fill:#ffffff;fill-opacity:1;stroke:#000000;stroke-width:1.05834;stroke-linecap:round;stroke-linejoin:round;stroke-miterlimit:4;stroke-dasharray:none;stroke-opacity:1"
       d="m 11.255984,0.52919441 c -0.16087,8.7363e-4 -0.334101,0.0199009 -0.520588,0.061616 C 8.7462036,1.0357702 9.0800119,3.0601071 9.0800119,3.0601071 9.7128897,6.2288005 10.996985,9.0513265 11.753936,10.533755 a 8.9153493,5.8279964 0 0 0 -3.8164376,4.779635 8.9153493,5.8279964 0 0 0 8.9153096,5.827623 8.9153493,5.8279964 0 0 0 8.915308,-5.827623 8.9153493,5.8279964 0 0 0 -3.714068,-4.733034 c 0.753654,-1.4697179 2.058216,-4.3190429 2.697586,-7.5202489 0,0 0.333809,-2.0243369 -1.655384,-2.46929677 -1.989192,-0.44495988 -2.473302,1.65120307 -2.473302,1.65120307 0,0 -0.693571,2.2123099 -0.968642,7.5388884 A 8.9153493,5.8279964 0 0 0 16.852808,9.4852491 8.9153493,5.8279964 0 0 0 14.176312,9.7576019 C 13.900423,4.4478885 13.208699,2.2420134 13.208699,2.2420134 c 0,0 -0.397646,-1.72126405 -1.952715,-1.71281899 z" />
    <ellipse
       style="fill:#000000;fill-opacity:1;stroke:none;stroke-width:1.05834;stroke-linecap:round;stroke-linejoin:round;stroke-miterlimit:4;stroke-dasharray:none"
       id="path1159-3"
       cx="13.438906"
       cy="13.529971"
       rx="0.96022499"
       ry="2.2044609" />
    <path
       style="fill:#ffa1d9;fill-opacity:1;stroke:#000000;stroke-width:0.529167;stroke-linecap:butt;stroke-linejoin:round;stroke-miterlimit:4;stroke-dasharray:none;stroke-opacity:1"
       d="m 15.667163,16.100174 c 0,0 1.300957,-0.348578 2.575677,-0.0022 0,0 -0.381261,0.902538 -1.280269,1.29694 0,0 -0.814702,-0.415571 -1.295408,-1.294735 z"
       id="path1408-7"
       sodipodi:nodetypes="sccs" />
    <path
       style="fill:#ffffff;fill-opacity:1;stroke:#000000;stroke-width:0.529167;stroke-linecap:round;stroke-linejoin:round;stroke-miterlimit:4;stroke-dasharray:none;stroke-opacity:1"
       d="m 15.812515,18.526743 0.426242,1.504745 c 0,0 0.693937,0.186232 1.463516,-0.0088 l 0.398149,-1.499674 c -0.358657,-0.138792 -0.766531,-0.509149 -1.105066,-1.063026 -0.394606,0.442993 -0.68374,0.75964 -1.182841,1.066785 z"
       id="path1481"
       sodipodi:nodetypes="cccccc" />
    <path
       style="fill:none;stroke:#000000;stroke-width:0.529167;stroke-linecap:round;stroke-linejoin:round;stroke-miterlimit:4;stroke-dasharray:none;stroke-opacity:1"
       d="m 16.962571,17.394909 c 0,0 -1.563496,2.707094 -3.962463,0.692867"
       id="path2081-5" />
    <path
       style="fill:none;stroke:#000000;stroke-width:0.529167;stroke-linecap:round;stroke-linejoin:round;stroke-miterlimit:4;stroke-dasharray:none;stroke-opacity:1"
       d="m 16.962571,17.394909 c 0,0 1.563495,2.707094 3.962462,0.692867"
       id="path2229-3" />
    <path
       style="fill:#ffa1d9;fill-opacity:1;stroke:#000000;stroke-width:0.529167;stroke-linecap:round;stroke-linejoin:round;stroke-miterlimit:4;stroke-dasharray:none;stroke-opacity:1"
       d="m 10.495418,3.8272778 c 0,0 -0.330682,-1.1296569 0.481817,-1.4268428 0.8125,-0.297186 1.120536,1.0125066 1.120536,1.0125066 0,0 0.762133,2.496697 0.80161,6.2849745 0,0 -1.535484,-2.3729277 -2.403963,-5.8706383 z"
       id="path4720" />
    <path
       style="fill:#ffa1d9;fill-opacity:1;stroke:#000000;stroke-width:0.529167;stroke-linecap:round;stroke-linejoin:round;stroke-miterlimit:4;stroke-dasharray:none;stroke-opacity:1"
       d="m 23.2906,3.8272778 c 0,0 0.330682,-1.1296569 -0.481818,-1.4268428 -0.812499,-0.297186 -1.120535,1.0125066 -1.120535,1.0125066 0,0 -0.762133,2.496697 -0.80161,6.2849745 0,0 1.535484,-2.3729277 2.403963,-5.8706383 z"
       id="path4820" />
    <path
       style="fill:#ee4874;fill-opacity:1;stroke:#000000;stroke-width:1.05834;stroke-linecap:round;stroke-linejoin:round;stroke-miterlimit:4;stroke-dasharray:none;stroke-opacity:1"
       d="m 13.331398,20.682975 c 0,0 -0.292878,8.024364 -4.3548175,11.439072 0,0 7.9106615,2.643667 15.5975965,-0.157591 0,0 -3.33163,-2.891926 -4.217881,-11.222928 0,0 -3.300159,1.142436 -7.024898,-0.05855 z"
       id="path4855"
       sodipodi:nodetypes="cccccc" />
    <path
       style="fill:#ffffff;fill-opacity:1;stroke:#000000;stroke-width:0.529167;stroke-linecap:round;stroke-linejoin:round;stroke-miterlimit:4;stroke-dasharray:none;stroke-opacity:1"
       d="m 14.90478,21.267154 c 0,0 0.44704,1.938249 2.048505,1.932875 1.601465,-0.0054 2.013676,-1.987449 2.013676,-1.987449 0,0 -1.999409,0.585324 -4.062181,0.05458 z"
       id="path6209" />
    <path
       style="fill:#ffe54d;fill-opacity:1;stroke:none;stroke-width:0.529167;stroke-linecap:round;stroke-linejoin:round;stroke-miterlimit:4;stroke-dasharray:none;stroke-opacity:1"
       d="m 16.932337,24.175066 c 0,0 -1.195331,-0.110176 -1.190161,1.072628 0.0049,1.117736 0.733431,1.625954 0.733431,1.625954 l 0.91071,0.0167 c 0,0 0.733814,-0.442208 0.748013,-1.652811 0.01279,-1.090644 -1.201993,-1.062466 -1.201993,-1.062466 z"
       id="path6360"
       sodipodi:nodetypes="csccscc" />
    <path
       style="fill:#ffe54d;fill-opacity:1;stroke:none;stroke-width:0.529167;stroke-linecap:round;stroke-linejoin:round;stroke-miterlimit:4;stroke-dasharray:none;stroke-opacity:1"
       d="m 20.089635,26.523535 c 0,0 -0.265275,-1.178313 -1.381277,-0.807859 -1.05461,0.35007 -1.309676,1.204548 -1.309676,1.204548 l 0.265643,0.876968 c 0,0 0.644591,0.565815 1.792845,0.205311 1.034472,-0.324783 0.632458,-1.478966 0.632458,-1.478966 z"
       id="path7939"
       sodipodi:nodetypes="csccscc" />
    <path
       style="fill:#ffe54d;fill-opacity:1;stroke:none;stroke-width:0.529167;stroke-linecap:round;stroke-linejoin:round;stroke-miterlimit:4;stroke-dasharray:none;stroke-opacity:1"
       d="m 18.882774,30.289188 c 0,0 1.031382,-0.618063 0.336486,-1.571913 -0.656664,-0.901382 -1.542856,-0.881503 -1.542856,-0.881503 l -0.746534,0.525294 c 0,0 -0.335434,0.791901 0.360026,1.7797 0.626548,0.889918 1.592874,0.148415 1.592874,0.148415 z"
       id="path7941"
       sodipodi:nodetypes="csccscc" />
    <path
       style="fill:#ffe54d;fill-opacity:1;stroke:none;stroke-width:0.529167;stroke-linecap:round;stroke-linejoin:round;stroke-miterlimit:4;stroke-dasharray:none;stroke-opacity:1"
       d="m 14.947611,30.283664 c 0,0 0.902704,0.79633 1.589237,-0.163636 0.64877,-0.907154 0.356139,-1.749347 0.356139,-1.749347 L 16.16596,27.818363 c 0,0 -0.8519,-0.07639 -1.570336,0.894604 -0.647245,0.874783 0.351993,1.570691 0.351993,1.570691 z"
       id="path7943"
       sodipodi:nodetypes="csccscc" />
    <path
       style="fill:#ffe54d;fill-opacity:1;stroke:none;stroke-width:0.529167;stroke-linecap:round;stroke-linejoin:round;stroke-miterlimit:4;stroke-dasharray:none;stroke-opacity:1"
       d="m 13.738542,26.501927 c 0,0 -0.47348,1.110222 0.645717,1.47078 1.057626,0.34073 1.762962,-0.199653 1.762962,-0.199653 l 0.297206,-0.866644 c 0,0 -0.191073,-0.839114 -1.330547,-1.226805 -1.026567,-0.349272 -1.37533,0.822326 -1.37533,0.822326 z"
       id="path7945"
       sodipodi:nodetypes="csccscc" />
    <ellipse
       style="fill:#000000;fill-opacity:1;stroke:none;stroke-width:1.05834;stroke-linecap:round;stroke-linejoin:round;stroke-miterlimit:4;stroke-dasharray:none"
       id="ellipse13483"
       cx="20.396908"
       cy="13.529971"
       rx="0.96022499"
       ry="2.2044609" />
    <g
       id="g13493"
       transform="matrix(0.9954518,0,0,1.001967,33.032623,-0.03000886)"
       style="stroke-width:1.0013">
      <path
         style="fill:#ffffff;fill-opacity:1;stroke:#000000;stroke-width:1.05971;stroke-linecap:round;stroke-linejoin:round;stroke-miterlimit:4;stroke-dasharray:none;stroke-opacity:1"
         d="m 13.437447,32.310063 0.05917,3.03703 2.693059,0.296143 0.917232,-2.870918 z"
         id="path13485"
         sodipodi:nodetypes="ccccc" />
      <path
         style="fill:#ffffff;fill-opacity:1;stroke:#000000;stroke-width:1.05971;stroke-linecap:round;stroke-linejoin:round;stroke-miterlimit:4;stroke-dasharray:none;stroke-opacity:1"
         d="m 16.488474,36.797126 c 0,0 -2.844717,0.531196 -4.265265,-0.149905 0,0 -1.220965,-1.75644 0.502159,-2.1424 1.723124,-0.385961 3.552684,0.400096 3.552684,0.400096 0,0 0.841829,0.388598 0.210422,1.892209 z"
         id="path13487" />
      <path
         style="fill:#ffffff;fill-opacity:1;stroke:#000000;stroke-width:0.529853;stroke-linecap:round;stroke-linejoin:round;stroke-miterlimit:4;stroke-dasharray:none;stroke-opacity:1"
         d="m 13.319443,35.563332 c 0,0 -0.153733,0.470678 3.71e-4,1.297802"
         id="path13489" />
      <path
         style="fill:#ffffff;fill-opacity:1;stroke:#000000;stroke-width:0.529853;stroke-linecap:round;stroke-linejoin:round;stroke-miterlimit:4;stroke-dasharray:none;stroke-opacity:1"
         d="m 14.592916,35.576445 c 0,0 -0.153733,0.470678 3.71e-4,1.297802"
         id="path13491" />
    </g>
    <g
       id="g13503"
       transform="matrix(-0.9954518,0,0,1.001967,68.661993,-0.03000886)"
       style="stroke-width:1.0013">
      <path
         style="fill:#ffffff;fill-opacity:1;stroke:#000000;stroke-width:1.05971;stroke-linecap:round;stroke-linejoin:round;stroke-miterlimit:4;stroke-dasharray:none;stroke-opacity:1"
         d="m 13.437447,32.310063 0.05917,3.03703 2.693059,0.296143 0.917232,-2.870918 z"
         id="path13495"
         sodipodi:nodetypes="ccccc" />
      <path
         style="fill:#ffffff;fill-opacity:1;stroke:#000000;stroke-width:1.05971;stroke-linecap:round;stroke-linejoin:round;stroke-miterlimit:4;stroke-dasharray:none;stroke-opacity:1"
         d="m 16.488474,36.797126 c 0,0 -2.844717,0.531196 -4.265265,-0.149905 0,0 -1.220965,-1.75644 0.502159,-2.1424 1.723124,-0.385961 3.552684,0.400096 3.552684,0.400096 0,0 0.841829,0.388598 0.210422,1.892209 z"
         id="path13497" />
      <path
         style="fill:#ffffff;fill-opacity:1;stroke:#000000;stroke-width:0.529853;stroke-linecap:round;stroke-linejoin:round;stroke-miterlimit:4;stroke-dasharray:none;stroke-opacity:1"
         d="m 13.319443,35.563332 c 0,0 -0.153733,0.470678 3.71e-4,1.297802"
         id="path13499" />
      <path
         style="fill:#ffffff;fill-opacity:1;stroke:#000000;stroke-width:0.529853;stroke-linecap:round;stroke-linejoin:round;stroke-miterlimit:4;stroke-dasharray:none;stroke-opacity:1"
         d="m 14.592916,35.576445 c 0,0 -0.153733,0.470678 3.71e-4,1.297802"
         id="path13501" />
    </g>
    <g
       id="g13511"
       transform="matrix(0.98899559,0.11319015,-0.11393098,0.99546853,35.993602,-1.4290757)"
       style="stroke-width:1.0013">
      <path
         style="fill:#ffffff;fill-opacity:1;stroke:#000000;stroke-width:1.05971;stroke-linecap:round;stroke-linejoin:round;stroke-miterlimit:4;stroke-dasharray:none;stroke-opacity:1"
         d="m 12.243165,21.082466 c 0,0 -1.281106,0.543108 -1.70875,3.121202 -0.427645,2.578093 -1.5077532,3.473284 -1.5077532,3.473284 0,0 -1.0956473,1.716564 0.1612548,2.447258 1.2569024,0.730695 2.9605834,-1.339834 2.9605834,-1.339834 0,0 1.720232,-2.772947 2.063008,-8.09214 -0.656114,0.130077 -1.023497,0.0014 -1.968343,0.39023 z"
         id="path13505"
         sodipodi:nodetypes="cscsccc" />
      <path
         style="fill:#ffffff;fill-opacity:1;stroke:#000000;stroke-width:0.529853;stroke-linecap:round;stroke-linejoin:round;stroke-miterlimit:4;stroke-dasharray:none;stroke-opacity:1"
         d="m 9.9106296,28.217961 c 0,0 -0.5647544,0.533625 -0.7861998,1.682732"
         id="path13507" />
      <path
         style="fill:#ffffff;fill-opacity:1;stroke:#000000;stroke-width:0.529853;stroke-linecap:round;stroke-linejoin:round;stroke-miterlimit:4;stroke-dasharray:none;stroke-opacity:1"
         d="m 10.573073,28.582508 c 0,0 -0.564754,0.533625 -0.7861993,1.682732"
         id="path13509" />
    </g>
    <g
       id="g13519"
       transform="matrix(-0.98931469,0.11036632,0.11108866,0.99578973,65.819032,-1.3355512)"
       style="stroke-width:1.0013">
      <path
         style="fill:#ffffff;fill-opacity:1;stroke:#000000;stroke-width:1.05971;stroke-linecap:round;stroke-linejoin:round;stroke-miterlimit:4;stroke-dasharray:none;stroke-opacity:1"
         d="m 12.243165,21.082466 c 0,0 -1.281106,0.543108 -1.70875,3.121202 -0.427645,2.578093 -1.5077532,3.473284 -1.5077532,3.473284 0,0 -1.0956473,1.716564 0.1612548,2.447258 1.2569024,0.730695 2.9605834,-1.339834 2.9605834,-1.339834 0,0 1.720232,-2.772947 2.063008,-8.09214 -0.656114,0.130077 -1.023497,0.0014 -1.968343,0.39023 z"
         id="path13513"
         sodipodi:nodetypes="cscsccc" />
      <path
         style="fill:#ffffff;fill-opacity:1;stroke:#000000;stroke-width:0.529853;stroke-linecap:round;stroke-linejoin:round;stroke-miterlimit:4;stroke-dasharray:none;stroke-opacity:1"
         d="m 9.9106296,28.217961 c 0,0 -0.5647544,0.533625 -0.7861998,1.682732"
         id="path13515" />
      <path
         style="fill:#ffffff;fill-opacity:1;stroke:#000000;stroke-width:0.529853;stroke-linecap:round;stroke-linejoin:round;stroke-miterlimit:4;stroke-dasharray:none;stroke-opacity:1"
         d="m 10.573073,28.582508 c 0,0 -0.564754,0.533625 -0.7861993,1.682732"
         id="path13517" />
    </g>
    <path
       style="fill:#ee4874;fill-opacity:1;stroke:#000000;stroke-width:1.05834;stroke-linecap:round;stroke-linejoin:round;stroke-miterlimit:4;stroke-dasharray:none;stroke-opacity:1"
       d="m 47.198068,20.875608 c 0,0 -0.631791,7.908581 -4.693731,11.323289 0,0 8.582513,2.699687 16.269448,-0.101571 0,0 -3.664568,-2.832163 -4.550819,-11.163165 0,0 -3.300159,1.142436 -7.024898,-0.05855 z"
       id="path13537"
       sodipodi:nodetypes="cccccc" />
    <path
       id="path13521"
       style="fill:#ffffff;fill-opacity:1;stroke:#000000;stroke-width:1.05834;stroke-linecap:round;stroke-linejoin:round;stroke-miterlimit:4;stroke-dasharray:none;stroke-opacity:1"
       d="m 43.837809,1.3158749 c -1.70895,0.6663908 -1.370955,2.3579688 -1.370955,2.3579688 0.632877,3.1686934 2.396801,5.7743621 3.153752,7.2567903 -2.390791,1.089647 -3.815885,2.874408 -3.816438,4.779635 3.15e-4,3.218558 3.991737,5.827609 8.91531,5.827623 4.923572,-1.5e-5 8.914993,-2.609066 8.915308,-5.827623 -1.7e-4,-1.876549 -1.382591,-3.638241 -3.714068,-4.733034 0.753654,-1.4697176 2.52548,-4.1792619 3.16485,-7.3804679 0,0 0.471232,-1.7522509 -1.268542,-2.3329215 -1.727101,-0.57644061 -2.485571,1.0813009 -2.485571,1.0813009 0,0 -1.535408,2.5060561 -1.810479,7.8326345 C 52.61728,9.9820855 51.671468,9.8822705 50.719478,9.8821284 49.8113,9.8832676 48.908719,9.9751117 48.042982,10.154481 47.767093,4.8447678 46.331904,2.3665356 46.331904,2.3665356 c 0,0 -0.785145,-1.71705152 -2.494095,-1.0506607 z"
       sodipodi:nodetypes="zcccccccscccccz" />
    <path
       style="fill:#ffffff;fill-opacity:1;stroke:#000000;stroke-width:0.529167;stroke-linecap:round;stroke-linejoin:round;stroke-miterlimit:4;stroke-dasharray:none;stroke-opacity:1"
       d="m 48.77145,21.69748 c 0,0 0.44704,1.938249 2.048505,1.932875 1.601465,-0.0054 2.013676,-1.987449 2.013676,-1.987449 0,0 -1.999409,0.585324 -4.062181,0.05458 z"
       id="path13539" />
    <path
       style="fill:#ffe54d;fill-opacity:1;stroke:none;stroke-width:0.529167;stroke-linecap:round;stroke-linejoin:round;stroke-miterlimit:4;stroke-dasharray:none;stroke-opacity:1"
       d="m 50.799007,24.175066 c 0,0 -1.195331,-0.110176 -1.190161,1.072628 0.0049,1.117736 0.733431,1.625954 0.733431,1.625954 l 0.91071,0.0167 c 0,0 0.733814,-0.442208 0.748013,-1.652811 0.01279,-1.090644 -1.201993,-1.062466 -1.201993,-1.062466 z"
       id="path13541"
       sodipodi:nodetypes="csccscc" />
    <path
       style="fill:#ffe54d;fill-opacity:1;stroke:none;stroke-width:0.529167;stroke-linecap:round;stroke-linejoin:round;stroke-miterlimit:4;stroke-dasharray:none;stroke-opacity:1"
       d="m 53.956305,26.523535 c 0,0 -0.265275,-1.178313 -1.381277,-0.807859 -1.05461,0.35007 -1.309676,1.204548 -1.309676,1.204548 l 0.265643,0.876968 c 0,0 0.644591,0.565815 1.792845,0.205311 1.034472,-0.324783 0.632458,-1.478966 0.632458,-1.478966 z"
       id="path13543"
       sodipodi:nodetypes="csccscc" />
    <path
       style="fill:#ffe54d;fill-opacity:1;stroke:none;stroke-width:0.529167;stroke-linecap:round;stroke-linejoin:round;stroke-miterlimit:4;stroke-dasharray:none;stroke-opacity:1"
       d="m 52.749444,30.289188 c 0,0 1.031382,-0.618063 0.336486,-1.571913 -0.656664,-0.901382 -1.542856,-0.881503 -1.542856,-0.881503 l -0.746534,0.525294 c 0,0 -0.335434,0.791901 0.360026,1.7797 0.626548,0.889918 1.592874,0.148415 1.592874,0.148415 z"
       id="path13545"
       sodipodi:nodetypes="csccscc" />
    <path
       style="fill:#ffe54d;fill-opacity:1;stroke:none;stroke-width:0.529167;stroke-linecap:round;stroke-linejoin:round;stroke-miterlimit:4;stroke-dasharray:none;stroke-opacity:1"
       d="m 48.814281,30.283664 c 0,0 0.902704,0.79633 1.589237,-0.163636 0.64877,-0.907154 0.356139,-1.749347 0.356139,-1.749347 L 50.03263,27.818363 c 0,0 -0.8519,-0.07639 -1.570336,0.894604 -0.647245,0.874783 0.351993,1.570691 0.351993,1.570691 z"
       id="path13547"
       sodipodi:nodetypes="csccscc" />
    <path
       style="fill:#ffe54d;fill-opacity:1;stroke:none;stroke-width:0.529167;stroke-linecap:round;stroke-linejoin:round;stroke-miterlimit:4;stroke-dasharray:none;stroke-opacity:1"
       d="m 47.605212,26.501927 c 0,0 -0.47348,1.110222 0.645717,1.47078 1.057626,0.34073 1.762962,-0.199653 1.762962,-0.199653 l 0.297206,-0.866644 c 0,0 -0.191073,-0.839114 -1.330547,-1.226805 -1.026567,-0.349272 -1.37533,0.822326 -1.37533,0.822326 z"
       id="path13549"
       sodipodi:nodetypes="csccscc" />
    <ellipse
       style="fill:#000000;fill-opacity:1;stroke:none;stroke-width:1.05834;stroke-linecap:round;stroke-linejoin:round;stroke-miterlimit:4;stroke-dasharray:none"
       id="ellipse13523"
       cx="47.305576"
       cy="13.92685"
       rx="0.96022499"
       ry="2.2044609" />
    <ellipse
       style="fill:#000000;fill-opacity:1;stroke:none;stroke-width:1.05834;stroke-linecap:round;stroke-linejoin:round;stroke-miterlimit:4;stroke-dasharray:none"
       id="ellipse13551"
       cx="54.26358"
       cy="13.92685"
       rx="0.96022499"
       ry="2.2044609" />
    <path
       style="fill:#ffa1d9;fill-opacity:1;stroke:#000000;stroke-width:0.529167;stroke-linecap:butt;stroke-linejoin:round;stroke-miterlimit:4;stroke-dasharray:none;stroke-opacity:1"
       d="m 49.533833,16.497053 c 0,0 1.300957,-0.348578 2.575677,-0.0022 0,0 -0.381261,0.902538 -1.280269,1.29694 0,0 -0.814702,-0.415571 -1.295408,-1.294735 z"
       id="path13525"
       sodipodi:nodetypes="sccs" />
    <path
       style="fill:none;stroke:#000000;stroke-width:0.529167;stroke-linecap:round;stroke-linejoin:round;stroke-miterlimit:4;stroke-dasharray:none;stroke-opacity:1"
       d="m 50.829241,17.791788 c 0,0 1.563495,2.707094 3.962462,0.692867"
       id="path13531" />
    <path
       style="fill:none;stroke:#000000;stroke-width:0.529167;stroke-linecap:round;stroke-linejoin:round;stroke-miterlimit:4;stroke-dasharray:none;stroke-opacity:1"
       d="m 50.829241,17.791788 c 0,0 -1.563496,2.707094 -3.962463,0.692867"
       id="path13529" />
    <path
       style="fill:#ffffff;fill-opacity:1;stroke:#000000;stroke-width:0.529167;stroke-linecap:round;stroke-linejoin:round;stroke-miterlimit:4;stroke-dasharray:none;stroke-opacity:1"
       d="m 49.679185,18.923622 0.426242,1.504745 c 0,0 0.693937,0.186232 1.463516,-0.0088 l 0.398149,-1.499674 c -0.358657,-0.138792 -0.766531,-0.509149 -1.105066,-1.063026 -0.394606,0.442993 -0.68374,0.75964 -1.182841,1.066785 z"
       id="path13527"
       sodipodi:nodetypes="cccccc" />
    <path
       style="fill:#ffa1d9;fill-opacity:1;stroke:#000000;stroke-width:0.529167;stroke-linecap:round;stroke-linejoin:round;stroke-miterlimit:4;stroke-dasharray:none;stroke-opacity:1"
       d="m 43.980611,4.3440359 c 0,0 -0.398159,-1.1076758 0.394954,-1.4532855 0.793115,-0.3456097 1.179516,0.9431392 1.179516,0.9431392 0,0 0.911207,2.4462307 1.178906,6.2252444 0,0 -1.675693,-2.276082 -2.753376,-5.7150981 z"
       id="path13533" />
    <path
       style="fill:#ffa1d9;fill-opacity:1;stroke:#000000;stroke-width:0.529167;stroke-linecap:round;stroke-linejoin:round;stroke-miterlimit:4;stroke-dasharray:none;stroke-opacity:1"
       d="m 57.644533,4.2803732 c 0,0 0.402907,-1.1059568 -0.388716,-1.454967 -0.791622,-0.3490102 -1.183552,0.9380686 -1.183552,0.9380686 0,0 -0.921697,2.4422978 -1.205611,6.2201271 0,0 1.685446,-2.268869 2.777879,-5.7032287 z"
       id="path13535" />
  </g>
</svg>
