<?xml version="1.0" encoding="UTF-8" standalone="no"?>
<!-- Created with Inkscape (http://www.inkscape.org/) -->

<svg
   xmlns:dc="http://purl.org/dc/elements/1.1/"
   xmlns:cc="http://creativecommons.org/ns#"
   xmlns:rdf="http://www.w3.org/1999/02/22-rdf-syntax-ns#"
   xmlns:svg="http://www.w3.org/2000/svg"
   xmlns="http://www.w3.org/2000/svg"
   xmlns:sodipodi="http://sodipodi.sourceforge.net/DTD/sodipodi-0.dtd"
   xmlns:inkscape="http://www.inkscape.org/namespaces/inkscape"
   width="256"
   height="144"
   viewBox="0 0 67.733332 38.100001"
   version="1.1"
   id="svg8"
   inkscape:version="0.92.5 (2060ec1f9f, 2020-04-08)"
   sodipodi:docname="shark.svg">
  <defs
     id="defs2" />
  <sodipodi:namedview
     id="base"
     pagecolor="#ffffff"
     bordercolor="#666666"
     borderopacity="1.0"
     inkscape:pageopacity="0.0"
     inkscape:pageshadow="2"
     inkscape:zoom="1"
     inkscape:cx="109.78536"
     inkscape:cy="61.177399"
     inkscape:document-units="px"
     inkscape:current-layer="layer1"
     showgrid="false"
     units="px"
     inkscape:pagecheckerboard="true"
     inkscape:showpageshadow="false"
     inkscape:snap-global="false"
     inkscape:window-width="1920"
     inkscape:window-height="1015"
     inkscape:window-x="0"
     inkscape:window-y="0"
     inkscape:window-maximized="1" />
  <metadata
     id="metadata5">
    <rdf:RDF>
      <cc:Work
         rdf:about="">
        <dc:format>image/svg+xml</dc:format>
        <dc:type
           rdf:resource="http://purl.org/dc/dcmitype/StillImage" />
        <dc:title></dc:title>
      </cc:Work>
    </rdf:RDF>
  </metadata>
  <g
     inkscape:label="Layer 1"
     inkscape:groupmode="layer"
     id="layer1"
     transform="translate(0,-258.9)">
    <path
       style="fill:#6d6d6d;fill-opacity:1;stroke:#000000;stroke-width:1.0583334;stroke-linecap:round;stroke-linejoin:round"
       d="m 16.961682,259.42889 -1.086682,8.31446 2.362352,0.0533 z"
       id="path4518"
       inkscape:connector-curvature="0" />
    <path
       style="fill:#929292;fill-opacity:1;stroke:#000000;stroke-width:1.0583334;stroke-linecap:round;stroke-linejoin:round"
       d="m 11.717262,271.15441 1.653646,3.67756 3.49628,1.54563 3.827009,-1.54563 0.992188,-3.73085 z"
       id="path4522"
       inkscape:connector-curvature="0" />
    <path
       style="fill:#6d6d6d;fill-opacity:1;stroke:#000000;stroke-width:1.0583334;stroke-linecap:round;stroke-linejoin:round"
       d="m 15.024554,266.03782 -5.008185,3.89074 2.645834,2.6116 4.063244,1.27915 4.582961,-1.11926 2.55134,-3.09127 -4.299479,-3.73085 z"
       id="path4520"
       inkscape:connector-curvature="0" />
    <path
       style="fill:#6d6d6d;fill-opacity:1;stroke:#000000;stroke-width:1.0583334;stroke-linecap:round;stroke-linejoin:round"
       d="m 14.363096,275.31165 -1.322917,2.77149 -2.551339,1.70552 -2.882069,3.03798 -0.8976934,2.98468 v 4.85009 l 2.126116,-3.83743 2.8348214,-3.14458 1.559152,-0.31978 0.708706,3.94403 0.850446,2.23852 0.661458,0.90607 -1.937128,1.01265 -2.551339,1.54564 -0.9921876,1.59892 -1.7953871,1.75884 3.7325147,-0.63958 2.787575,-1.43904 1.181175,-1.54563 1.181176,-0.42639 1.086682,0.31979 0.897693,1.54564 2.173363,1.17255 4.252232,1.11925 -0.992187,-1.11925 -0.94494,-1.81213 -1.937128,-2.02531 -2.504093,-1.27915 0.755952,-1.33245 0.236236,-3.62424 0.330729,-1.97202 2.173363,0.42638 1.511905,1.59893 1.464658,2.4517 0.992186,3.14457 0.850448,-2.93138 0.04725,-3.25117 -1.606399,-2.45171 -2.267858,-2.50498 -2.126116,-1.17255 -1.41741,-1.49234 -0.47247,-1.86543 z"
       id="path4524"
       inkscape:connector-curvature="0"
       sodipodi:nodetypes="ccccccccccccccccccccccccccccccccccccccccccc" />
    <path
       style="fill:#ff9533;fill-opacity:1;stroke:#000000;stroke-width:1.0583334;stroke-linecap:round;stroke-linejoin:round"
       d="m 10.536087,277.71005 2.740327,-0.79947 2.456845,2.82478 0.614212,7.72819 -4.157739,1.27916 -0.566964,-4.31714 0.708706,-2.50499 -0.519718,-3.14457 z"
       id="path4526"
       inkscape:connector-curvature="0"
       sodipodi:nodetypes="ccccccccc" />
    <path
       style="fill:#ff9533;fill-opacity:1;stroke:#000000;stroke-width:1.0583334;stroke-linecap:round;stroke-linejoin:round"
       d="m 20.694197,276.4842 -2.693081,3.51766 -0.519717,7.51498 4.015997,1.49235 0.283483,-5.01001 -0.755953,-2.2385 0.377977,-2.66489 1.228422,-1.59894 z"
       id="path4528"
       inkscape:connector-curvature="0"
       sodipodi:nodetypes="ccccccccc" />
    <ellipse
       style="fill:#000000;fill-opacity:1;stroke:none;stroke-width:1.0583334;stroke-linecap:round;stroke-linejoin:round"
       id="path4530"
       cx="14.622953"
       cy="269.75647"
       rx="0.63783485"
       ry="1.6536438" />
    <ellipse
       ry="1.6536438"
       rx="0.63783485"
       cy="269.80981"
       cx="19.347656"
       id="ellipse4532"
       style="fill:#000000;fill-opacity:1;stroke:none;stroke-width:1.0583334;stroke-linecap:round;stroke-linejoin:round" />
    <path
       inkscape:connector-curvature="0"
       id="path4534"
       d="m 50.828352,259.69616 -1.086682,8.31446 2.362352,0.0533 z"
       style="fill:#6d6d6d;fill-opacity:1;stroke:#000000;stroke-width:1.0583334;stroke-linecap:round;stroke-linejoin:round" />
    <path
       inkscape:connector-curvature="0"
       id="path4536"
       d="m 45.583932,271.42168 1.653646,3.67756 3.49628,1.54563 3.827009,-1.54563 0.992188,-3.73085 z"
       style="fill:#929292;fill-opacity:1;stroke:#000000;stroke-width:1.0583334;stroke-linecap:round;stroke-linejoin:round" />
    <path
       inkscape:connector-curvature="0"
       id="path4538"
       d="m 48.891224,266.30509 -5.008185,3.89074 2.645834,2.6116 4.063244,1.27915 4.582961,-1.11926 2.55134,-3.09127 -4.299479,-3.73085 z"
       style="fill:#6d6d6d;fill-opacity:1;stroke:#000000;stroke-width:1.0583334;stroke-linecap:round;stroke-linejoin:round" />
    <path
       sodipodi:nodetypes="ccccccccccccccccccccccccccccccccccccccccccc"
       inkscape:connector-curvature="0"
       id="path4540"
       d="m 48.229766,275.64574 -1.322917,2.77149 -2.551339,1.70552 -2.882069,3.03798 -0.697242,2.91786 0.400904,4.64964 1.725212,-3.63698 2.63437,-3.41185 1.559152,-0.31978 0.708706,3.94403 0.850446,2.23852 0.661458,0.90607 -1.937128,1.2131 -2.551339,1.54564 -0.992188,1.39847 -1.795387,1.75884 3.799332,-0.50595 2.787575,-1.43904 1.114358,-1.47881 1.181176,-0.42639 1.086682,0.31979 1.164963,1.54564 2.173363,1.17255 3.984962,0.9188 -0.992187,-1.11925 -0.94494,-1.61168 -1.937128,-2.02531 -2.504093,-1.4796 0.755952,-1.33245 0.236236,-3.62424 0.330729,-1.97202 2.173363,0.42638 1.511905,1.59893 1.264206,2.18443 0.658099,3.21139 1.184535,-3.13183 0.247702,-2.85027 -1.606399,-2.11762 -2.267858,-2.50498 -2.126116,-1.17255 -1.41741,-1.49234 -0.47247,-1.86543 z"
       style="fill:#6d6d6d;fill-opacity:1;stroke:#000000;stroke-width:1.0583334;stroke-linecap:round;stroke-linejoin:round" />
    <path
       sodipodi:nodetypes="ccccccccc"
       inkscape:connector-curvature="0"
       id="path4542"
       d="m 44.496908,277.65805 2.754447,-0.74938 2.404937,2.8691 0.473216,7.73811 -4.180369,1.20314 -0.488163,-4.32675 0.754257,-2.49166 -0.462301,-3.15352 z"
       style="fill:#ff9533;fill-opacity:1;stroke:#000000;stroke-width:1.0583334;stroke-linecap:round;stroke-linejoin:round" />
    <path
       sodipodi:nodetypes="ccccccccc"
       inkscape:connector-curvature="0"
       id="path4544"
       d="m 54.456047,276.47456 -2.634165,3.562 -0.394579,7.52258 4.040277,1.42532 0.200065,-5.01404 -0.793102,-2.22561 0.333575,-2.67081 1.201642,-1.61917 z"
       style="fill:#ff9533;fill-opacity:1;stroke:#000000;stroke-width:1.0583334;stroke-linecap:round;stroke-linejoin:round" />
    <ellipse
       ry="1.6536438"
       rx="0.63783485"
       cy="270.02374"
       cx="48.489624"
       id="ellipse4546"
       style="fill:#000000;fill-opacity:1;stroke:none;stroke-width:1.0583334;stroke-linecap:round;stroke-linejoin:round" />
    <ellipse
       style="fill:#000000;fill-opacity:1;stroke:none;stroke-width:1.0583334;stroke-linecap:round;stroke-linejoin:round"
       id="ellipse4548"
       cx="53.214329"
       cy="270.07709"
       rx="0.63783485"
       ry="1.6536438" />
  </g>
</svg>
